<?xml version="1.0" ?><svg xmlns="http://www.w3.org/2000/svg" xmlns:xlink="http://www.w3.org/1999/xlink" version="1.1" viewBox="0 0 512 512" style="enable-background:new 0 0 512 512;" xml:space="preserve"><g id="_x32_0_x2C__yarn_ball_x2C__yarn_x2C__thread_x2C__wool_x2C__art_and_design_x2C__sew"><g><g><path style="fill:#3A98FF;" d="M463.069,364.73c-31.974-15.443-62.146-33.686-90.302-54.325     c35.678-40.843,66.272-86.81,90.223-137.144c2.373-4.987,0.254-10.954-4.733-13.327c-4.986-2.37-10.953-0.255-13.327,4.733     c-23.336,49.042-53.224,93.836-88.129,133.609c-13.102-10.312-25.729-21.157-37.862-32.49     c39.556-44.351,73.173-94.991,98.738-150.989c2.294-5.024,0.08-10.956-4.943-13.25c-5.027-2.296-10.957-0.081-13.25,4.943     c-24.614,53.915-56.937,102.669-94.936,145.39c-11.754-11.745-23.003-23.96-33.715-36.61     c36.184-40.743,67.359-86.82,91.903-137.637c2.401-4.974,0.317-10.952-4.655-13.354c-4.974-2.399-10.951-0.317-13.354,4.655     c-23.096,47.82-52.451,91.613-86.733,130.649c-32.599-41.233-59.729-86.625-80.608-134.787     c-2.195-5.066-8.084-7.394-13.152-5.197c-5.067,2.196-7.395,8.085-5.197,13.152c21.824,50.343,50.499,98.212,85.341,141.813     c-11.338,12.053-23.158,23.614-35.423,34.654c-36.507-46.024-65.88-96.87-87.111-150.251c-2.04-5.131-7.856-7.638-12.987-5.596     c-5.133,2.041-7.638,7.856-5.597,12.988c22.076,55.501,52.632,108.285,90.595,156c-12.63,10.629-25.687,20.727-39.125,30.273     c-33.024-42.772-60.09-89.698-80.333-139.1C72.986,149.718,69.315,147,65.01,147c-7.117,0-11.935,7.234-9.256,13.791     c20.773,50.784,48.547,99.083,82.458,143.169c-29.59,19.579-60.871,36.55-93.42,50.66c-5.067,2.196-7.395,8.085-5.197,13.152     c2.202,5.081,8.096,7.388,13.152,5.197c33.96-14.722,66.792-32.565,97.951-53.311c10.322,12.56,21.157,24.742,32.486,36.506     c-33.106,21.522-68.083,39.625-104.221,53.998c-5.132,2.041-7.637,7.856-5.596,12.987c2.048,5.15,7.873,7.631,12.988,5.597     c38.66-15.377,75.999-34.875,111.228-58.116c11.968,11.632,24.439,22.808,37.392,33.483     c-32.146,21.102-66.165,39.039-101.447,53.496c-3.815,1.408-6.534,5.079-6.534,9.385c0,7.117,7.234,11.935,13.791,9.256     c38.563-15.774,75.695-35.584,110.636-59.052c33.005,25.34,68.887,47.508,107.321,65.797c4.988,2.371,10.952,0.254,13.327-4.733     c2.373-4.987,0.254-10.954-4.733-13.327c-35.168-16.734-68.147-36.844-98.663-59.75c13.773-9.94,27.167-20.469,40.138-31.553     c33.353,24.746,69.586,46.332,108.394,64.05c5.047,2.306,10.968,0.056,13.25-4.943c2.294-5.024,0.08-10.956-4.943-13.25     c-36.204-16.528-70.078-36.537-101.365-59.401c12.139-11.084,23.866-22.677,35.137-34.757     c29.475,21.759,61.227,41.057,95.084,57.41c4.998,2.412,10.964,0.293,13.354-4.655     C470.126,373.111,468.042,367.132,463.069,364.73z M257.212,230.106c10.735,12.577,21.997,24.767,33.779,36.513     c-11.458,12.04-23.376,23.559-35.709,34.533c-11.747-11.72-22.967-23.888-33.635-36.455     C233.922,253.684,245.79,242.145,257.212,230.106z M167.223,308.271c13.468-9.603,26.595-19.757,39.324-30.459     c10.654,12.541,21.842,24.691,33.533,36.413c-12.961,10.781-26.332,20.986-40.061,30.585     C188.568,333.059,177.63,320.863,167.223,308.271z M252.212,392.365c-13.092-10.574-25.697-21.671-37.777-33.253     c13.73-9.719,27.105-20.022,40.075-30.887c12.194,11.454,24.896,22.45,38.084,32.941     C279.554,372.151,266.078,382.561,252.212,392.365z M307.926,347.801c-13.247-10.403-25.99-21.331-38.211-32.731     c12.307-11.006,24.215-22.531,35.671-34.564c12.146,11.344,24.799,22.231,37.935,32.62     C331.983,325.198,320.167,336.761,307.926,347.801z"/></g><g><path style="fill:#283954;" d="M499.493,69.288c15.595-15.595,15.595-40.972,0-56.567c-15.635-15.633-40.935-15.633-56.569,0     c-13.19,13.191-15.251,33.261-6.185,48.602L404.361,93.7c-86.227-70.235-210.349-70.356-296.723,0L75.26,61.322     c8.845-14.946,7.299-35.117-6.184-48.602C53.44-2.914,28.14-2.912,12.507,12.721c-15.595,15.595-15.595,40.972,0,56.567     C25.701,82.481,45.777,84.54,61.12,75.467l31.535,31.535C48.466,149.719,21,209.624,21,276.004c0,129.895,105.123,235,235,235     c129.895,0,235-105.123,235-235c0-66.386-27.468-126.288-71.656-169.002l31.535-31.535     C466.224,84.541,486.301,82.48,499.493,69.288z M26.649,55.147c-7.797-7.799-7.797-20.486,0-28.284     c7.797-7.799,20.489-7.797,28.284,0c7.798,7.798,7.798,20.485,0,28.283C47.138,62.944,34.449,62.947,26.649,55.147z M471,276.004     c0,118.552-96.448,215-215,215s-215-96.448-215-215s96.448-215,215-215S471,157.453,471,276.004z M457.066,26.863     c7.799-7.799,20.488-7.797,28.284-0.001c7.797,7.799,7.797,20.486,0,28.284c-7.796,7.798-20.486,7.8-28.284,0     C449.269,47.348,449.269,34.661,457.066,26.863z"/></g></g></g><g id="Layer_1"/></svg>