<?xml version="1.0" ?><!DOCTYPE svg  PUBLIC '-//W3C//DTD SVG 1.1//EN'  'http://www.w3.org/Graphics/SVG/1.1/DTD/svg11.dtd'><svg enable-background="new 0 0 512 512" height="512px" id="Calque_1" version="1.1" viewBox="0 0 512 512" width="512px" xml:space="preserve" xmlns="http://www.w3.org/2000/svg" xmlns:xlink="http://www.w3.org/1999/xlink"><path d="M256,190.601c-36.062,0-65.399,29.338-65.399,65.399s29.338,65.4,65.399,65.4s65.399-29.339,65.399-65.4  S292.061,190.601,256,190.601z" fill="#EA6226"/><path d="M256,134.39c-67.05,0-121.6,54.56-121.6,121.61s54.55,121.61,121.6,121.61S377.61,323.05,377.61,256  S323.05,134.39,256,134.39z M256,334.401c-43.23,0-78.4-35.17-78.4-78.4c0-43.23,35.17-78.4,78.4-78.4c43.23,0,78.4,35.17,78.4,78.4  C334.4,299.231,299.23,334.401,256,334.401z" fill="#EA6226"/><path d="M451.87,303.401c18.27-8.91,29.62-27.07,29.62-47.4s-11.351-38.49-29.62-47.4  c-1.69-0.83-2.94-2.34-3.43-4.16c-0.49-1.82-0.16-3.76,0.89-5.32c11.37-16.86,12.12-38.27,1.96-55.87  c-9.4-16.26-26.91-26.37-45.72-26.37c-1.21,0-2.44,0.04-3.641,0.13c-1.87,0.12-3.72-0.56-5.05-1.89s-2.02-3.17-1.89-5.05  c1.41-20.28-8.65-39.19-26.24-49.35c-8.02-4.63-17.12-7.08-26.31-7.08c-10.58,0-20.801,3.12-29.561,9.03  c-1.56,1.05-3.5,1.37-5.32,0.89c-1.819-0.49-3.329-1.74-4.159-3.43c-8.91-18.27-27.07-29.62-47.4-29.62s-38.49,11.35-47.4,29.62  c-0.83,1.69-2.34,2.94-4.16,3.43c-1.82,0.48-3.76,0.16-5.32-0.89c-8.76-5.91-18.98-9.03-29.56-9.03c-9.19,0-18.29,2.44-26.31,7.08  c-17.6,10.16-27.65,29.07-26.24,49.35c0.13,1.88-0.56,3.72-1.89,5.05s-3.16,2.02-5.05,1.89c-1.2-0.09-2.43-0.13-3.64-0.13  c-18.8,0-36.32,10.1-45.71,26.37c-10.17,17.6-9.42,39.01,1.95,55.87c1.05,1.56,1.38,3.5,0.89,5.32c-0.49,1.82-1.74,3.33-3.43,4.16  c-18.27,8.91-29.62,27.07-29.62,47.4c0,20.32,11.35,38.49,29.62,47.4c1.69,0.819,2.94,2.34,3.43,4.159  c0.49,1.82,0.16,3.761-0.89,5.32c-11.37,16.86-12.12,38.271-1.95,55.87c9.39,16.26,26.91,26.37,45.71,26.37  c1.21,0,2.44-0.04,3.64-0.13c1.87-0.13,3.72,0.56,5.05,1.89s2.02,3.17,1.89,5.05c-1.41,20.28,8.64,39.19,26.24,49.351  c8.02,4.63,17.12,7.08,26.31,7.08c10.58,0,20.8-3.12,29.56-9.03c1.09-0.73,2.35-1.11,3.64-1.11c0.56,0,1.12,0.07,1.68,0.221  c1.82,0.489,3.33,1.739,4.16,3.43c8.91,18.27,27.07,29.62,47.4,29.62s38.49-11.351,47.4-29.62c0.83-1.69,2.34-2.94,4.159-3.43  c1.82-0.49,3.761-0.16,5.32,0.89c8.76,5.91,18.98,9.03,29.561,9.03c9.189,0,18.29-2.45,26.31-7.08  c17.59-10.16,27.65-29.07,26.24-49.351c-0.13-1.88,0.56-3.72,1.89-5.05s3.17-2.03,5.05-1.89c1.2,0.09,2.431,0.13,3.641,0.13  c18.8,0,36.319-10.11,45.72-26.37c10.16-17.6,9.41-39.01-1.96-55.87c-1.05-1.56-1.38-3.5-0.89-5.32  C448.929,305.74,450.179,304.22,451.87,303.401z M256,390.611c-74.22,0-134.6-60.391-134.6-134.61  c0-74.22,60.38-134.61,134.6-134.61c74.22,0,134.61,60.39,134.61,134.61C390.61,330.22,330.219,390.611,256,390.611z" fill="#FECD0E"/><path d="M451.869,303.401c18.271-8.91,29.621-27.07,29.621-47.4s-11.35-38.49-29.621-47.4  c-1.689-0.83-2.939-2.34-3.43-4.159c-0.49-1.82-0.16-3.761,0.891-5.32c11.369-16.86,12.119-38.271,1.959-55.87  c-9.398-16.26-26.908-26.37-45.719-26.37c-1.211,0-2.439,0.04-3.641,0.13c-1.869,0.12-3.721-0.56-5.049-1.89  c-1.33-1.33-2.021-3.17-1.891-5.05c1.41-20.28-8.65-39.19-26.24-49.351c-8.02-4.63-17.119-7.08-26.311-7.08  c-10.58,0-20.799,3.12-29.559,9.03c-1.561,1.05-3.5,1.37-5.32,0.89c-1.82-0.489-3.33-1.739-4.16-3.43  c-8.91-18.27-27.07-29.62-47.401-29.62c-20.33,0-38.489,11.351-47.399,29.62c-0.83,1.69-2.34,2.94-4.16,3.43  c-1.82,0.48-3.76,0.16-5.32-0.89c-8.76-5.91-18.979-9.03-29.56-9.03c-9.19,0-18.29,2.44-26.311,7.08  c-17.6,10.16-27.649,29.07-26.239,49.351c0.13,1.88-0.561,3.72-1.891,5.05s-3.16,2.02-5.05,1.89c-1.2-0.09-2.43-0.13-3.64-0.13  c-18.8,0-36.32,10.101-45.71,26.37c-10.17,17.6-9.42,39.01,1.949,55.87c1.051,1.56,1.381,3.5,0.891,5.32  c-0.49,1.819-1.74,3.329-3.43,4.159c-18.271,8.91-29.62,27.07-29.62,47.4c0,20.32,11.35,38.49,29.62,47.4  c1.689,0.819,2.939,2.34,3.43,4.159c0.49,1.82,0.16,3.761-0.891,5.32C51.3,329.74,50.55,351.151,60.72,368.75  c9.39,16.26,26.91,26.37,45.71,26.37c1.21,0,2.439-0.04,3.64-0.13c1.87-0.13,3.72,0.56,5.05,1.89s2.021,3.17,1.891,5.05  c-1.41,20.28,8.64,39.19,26.239,49.351c8.021,4.63,17.12,7.08,26.311,7.08c10.58,0,20.8-3.12,29.56-9.03  c1.09-0.73,2.351-1.11,3.641-1.11c0.56,0,1.12,0.07,1.68,0.221c1.82,0.489,3.33,1.739,4.16,3.43  c8.91,18.27,27.069,29.62,47.399,29.62c20.331,0,38.491-11.351,47.401-29.62c0.83-1.69,2.34-2.94,4.16-3.43  c1.82-0.49,3.76-0.16,5.32,0.89c8.76,5.91,18.979,9.03,29.559,9.03c9.191,0,18.291-2.45,26.311-7.08  c17.59-10.16,27.65-29.07,26.24-49.351c-0.131-1.88,0.561-3.72,1.891-5.05c1.328-1.33,3.17-2.03,5.049-1.89  c1.201,0.09,2.43,0.13,3.641,0.13c18.799,0,36.32-10.11,45.719-26.37c10.16-17.6,9.41-39.01-1.959-55.87  c-1.051-1.56-1.381-3.5-0.891-5.32C448.929,305.74,450.179,304.22,451.869,303.401z M421.599,296.08c-1.43,0.689-2.48,1.97-2.9,3.51  c-0.41,1.54-0.129,3.18,0.76,4.5c9.611,14.26,10.24,32.36,1.65,47.24c-7.939,13.74-22.76,22.29-38.65,22.29  c-1.02,0-2.059-0.03-3.078-0.11c-1.592-0.12-3.141,0.48-4.271,1.601c-1.119,1.13-1.709,2.68-1.6,4.27  c1.199,17.15-7.311,33.13-22.18,41.72c-6.779,3.92-14.48,5.99-22.25,5.99c-8.939,0-17.58-2.64-24.99-7.63  c-1.32-0.89-2.959-1.17-4.5-0.76c-1.539,0.42-2.811,1.47-3.51,2.899c-7.541,15.45-22.891,25.051-40.081,25.051  c-17.189,0-32.54-9.601-40.069-25.051c-0.71-1.43-1.98-2.479-3.521-2.899c-0.479-0.12-0.95-0.181-1.42-0.181  c-1.09,0-2.16,0.32-3.08,0.94c-7.41,4.99-16.05,7.63-24.99,7.63c-7.77,0-15.47-2.07-22.25-5.99  c-14.88-8.59-23.369-24.569-22.18-41.72c0.11-1.59-0.479-3.14-1.6-4.27c-1.12-1.12-2.69-1.71-4.271-1.601  c-1.01,0.08-2.05,0.11-3.08,0.11c-15.89,0-30.699-8.55-38.64-22.29c-8.6-14.88-7.97-32.98,1.64-47.24  c0.891-1.32,1.17-2.96,0.761-4.5c-0.42-1.54-1.471-2.82-2.9-3.51c-15.45-7.54-25.05-22.9-25.05-40.08c0-17.19,9.6-32.54,25.05-40.08  c1.43-0.7,2.48-1.97,2.9-3.51c0.409-1.54,0.13-3.18-0.761-4.5c-9.609-14.26-10.239-32.36-1.64-47.24  c7.94-13.75,22.75-22.29,38.64-22.29c1.03,0,2.07,0.03,3.08,0.11c1.601,0.109,3.15-0.48,4.271-1.601c1.12-1.13,1.71-2.68,1.6-4.27  c-1.189-17.15,7.3-33.13,22.18-41.72c6.78-3.931,14.48-5.99,22.25-5.99c8.94,0,17.58,2.64,24.99,7.63c1.32,0.89,2.96,1.16,4.5,0.76  c1.54-0.42,2.811-1.47,3.521-2.899c7.529-15.45,22.88-25.051,40.069-25.051c17.19,0,32.54,9.601,40.081,25.051  c0.699,1.43,1.971,2.479,3.51,2.899c1.541,0.4,3.18,0.13,4.5-0.76c7.41-4.99,16.051-7.63,24.99-7.63c7.77,0,15.471,2.07,22.25,5.99  c14.869,8.59,23.379,24.569,22.18,41.72c-0.109,1.59,0.48,3.14,1.6,4.27c1.131,1.12,2.691,1.7,4.271,1.601  c1.02-0.08,2.059-0.11,3.078-0.11c15.9,0,30.711,8.55,38.65,22.29c8.59,14.88,7.961,32.98-1.65,47.24  c-0.889,1.32-1.17,2.96-0.76,4.5c0.42,1.54,1.471,2.81,2.9,3.51c15.451,7.54,25.051,22.89,25.051,40.08  S437.051,288.54,421.599,296.08z" opacity="0.2"/><path d="  M327.899,256c0,39.705-32.194,71.9-71.899,71.9c-39.704,0-71.899-32.195-71.899-71.9c0-39.707,32.194-71.9,71.899-71.9  C295.706,184.1,327.899,216.293,327.899,256z" fill="none" stroke="#010101" stroke-linecap="round" stroke-linejoin="round" stroke-miterlimit="10" stroke-width="4"/><path d="  M384.105,255.999c0,70.746-57.363,128.107-128.105,128.107c-70.742,0-128.106-57.359-128.106-128.107  c0-70.743,57.359-128.104,128.106-128.104C326.744,127.894,384.105,185.256,384.105,255.999z" fill="none" stroke="#010101" stroke-linecap="round" stroke-linejoin="round" stroke-miterlimit="10" stroke-width="4"/><path d="  M487.992,256.002c0-23.404-13.566-43.633-33.272-53.243c12.266-18.187,13.899-42.487,2.194-62.759  c-11.707-20.271-33.563-30.993-55.437-29.475c1.518-21.875-9.205-43.729-29.477-55.436c-20.271-11.707-44.57-10.071-62.757,2.191  C299.632,37.578,279.404,24.01,256,24.01s-43.632,13.566-53.244,33.271c-18.186-12.263-42.486-13.899-62.757-2.191  c-20.271,11.706-30.995,33.561-29.476,55.435c-21.875-1.518-43.729,9.205-55.436,29.477c-11.707,20.27-10.07,44.57,2.191,62.757  c-19.703,9.612-33.271,29.84-33.271,53.243c0,23.404,13.568,43.633,33.271,53.244C45.017,327.43,43.381,351.731,55.088,372  c11.707,20.271,33.561,30.994,55.436,29.477c-1.52,21.875,9.205,43.727,29.476,55.438c20.271,11.705,44.571,10.07,62.757-2.195  c9.612,19.707,29.84,33.271,53.244,33.271s43.632-13.564,53.243-33.271c18.187,12.266,42.486,13.9,62.757,2.195  c20.271-11.709,30.994-33.563,29.477-55.438c21.874,1.518,43.727-9.205,55.437-29.477c11.706-20.27,10.071-44.57-2.194-62.756  C474.425,299.633,487.992,279.405,487.992,256.002z" fill="none" stroke="#010101" stroke-linecap="round" stroke-linejoin="round" stroke-miterlimit="10" stroke-width="4"/><circle cx="478.142" cy="377.611" fill="#FECD0E" r="12"/><circle cx="466.142" cy="97.125" fill="#FECD0E" r="12"/><circle cx="87.252" cy="30.51" fill="#FECD0E" r="12"/><circle cx="42.51" cy="121.125" fill="#FECD0E" r="12"/><circle cx="30.51" cy="377.611" fill="#FECD0E" r="12"/><circle cx="374.175" cy="481.49" fill="#FECD0E" r="12"/><g><line fill="none" stroke="#EA6226" stroke-miterlimit="10" stroke-width="5" x1="475.177" x2="457.107" y1="460.454" y2="478.526"/><line fill="none" stroke="#EA6226" stroke-miterlimit="10" stroke-width="5" x1="457.107" x2="475.177" y1="460.454" y2="478.526"/></g><g><line fill="none" stroke="#EA6226" stroke-miterlimit="10" stroke-width="5" x1="423.617" x2="405.548" y1="21.474" y2="39.546"/><line fill="none" stroke="#EA6226" stroke-miterlimit="10" stroke-width="5" x1="405.548" x2="423.617" y1="21.474" y2="39.546"/></g><g><line fill="none" stroke="#EA6226" stroke-miterlimit="10" stroke-width="5" x1="176.165" x2="158.095" y1="14.974" y2="33.046"/><line fill="none" stroke="#EA6226" stroke-miterlimit="10" stroke-width="5" x1="158.095" x2="176.165" y1="14.974" y2="33.046"/></g><g><line fill="none" stroke="#EA6226" stroke-miterlimit="10" stroke-width="5" x1="72.579" x2="54.51" y1="460.454" y2="478.526"/><line fill="none" stroke="#EA6226" stroke-miterlimit="10" stroke-width="5" x1="54.51" x2="72.579" y1="460.454" y2="478.526"/></g><g><line fill="none" stroke="#EA6226" stroke-miterlimit="10" stroke-width="5" x1="152.469" x2="134.4" y1="484.455" y2="502.527"/><line fill="none" stroke="#EA6226" stroke-miterlimit="10" stroke-width="5" x1="134.4" x2="152.469" y1="484.455" y2="502.527"/></g></svg>