<?xml version="1.0" ?><svg enable-background="new 0 0 128 128" id="Layer_1" version="1.1" viewBox="0 0 128 128" xml:space="preserve" xmlns="http://www.w3.org/2000/svg" xmlns:xlink="http://www.w3.org/1999/xlink"><g><g><path d="M128,64c0,35.35-28.65,64-64,64c-27.47,0-50.9-17.3-59.97-41.61C1.42,79.42,0,71.88,0,64    C0,28.65,28.65,0,64,0c30.19,0,55.49,20.89,62.23,49C127.39,53.81,128,58.83,128,64z" fill="#2979A2"/></g><g><g><g><path d="M128,64c0,15.56-5.55,29.82-14.77,40.91l-97.05,1.63C9.68,99.25,4.83,90.46,2.22,80.75      c0.92-0.98,2.15-1.95,4.08-2.9c6.71-3.3,8.48,0.29,15.2-3.01c6.71-3.3,4.94-6.89,11.65-10.19c6.72-3.3,8.48,0.29,15.19-3.01      c6.71-3.3,4.95-6.89,11.66-10.19c6.71-3.3,8.47,0.29,15.18-3.01s4.95-6.89,11.66-10.19c6.71-3.3,8.48,0.29,15.19-3.01      c6.71-3.3,4.94-6.89,11.65-10.19c0.28-0.14,0.55-0.26,0.82-0.37C122.96,35.53,128,49.17,128,64z" fill="#65C7CF"/></g></g></g><g><path d="M128,64c0,35.35-28.65,64-64,64c-27.47,0-50.9-17.3-59.97-41.61c12.24,3.36,32.21,3.78,57.46-13.52    C92.62,51.54,115.72,48.84,126.23,49C127.39,53.81,128,58.83,128,64z" fill="#78B9C8"/></g><g><g><g><g><path d="M127.99,64.99C127.46,99.88,99.02,128,64,128c-26.23,0-48.78-15.78-58.66-38.36       c8.98-0.45,42.16-3.04,68.99-17.31C93.83,61.96,114.88,62.85,127.99,64.99z" fill="#CBEAED"/></g></g></g></g><g><g><circle cx="24.448" cy="26.942" fill="#FFFFFF" r="1.681"/></g><g><circle cx="35.228" cy="23.58" fill="#FFFFFF" r="1.681"/></g><g><ellipse cx="8.851" cy="51.343" fill="#FFFFFF" rx="0.84" ry="0.84" transform="matrix(0.6099 -0.7925 0.7925 0.6099 -37.2363 27.0443)"/></g><g><ellipse cx="18.21" cy="60.874" fill="#FFFFFF" rx="1.681" ry="1.681" transform="matrix(0.9689 -0.2475 0.2475 0.9689 -14.4986 6.4003)"/></g><g><circle cx="28.312" cy="33.163" fill="#FFFFFF" r="1.681"/></g><g><circle cx="13.966" cy="36.448" fill="#EDE8EE" r="0.84"/></g><g><circle cx="27.472" cy="45.044" fill="#FFFFFF" r="0.84"/></g><g><circle cx="36.7" cy="79.376" fill="#FFFFFF" r="1.681"/></g><g><circle cx="62.621" cy="30.118" fill="#FFFFFF" r="0.84"/></g><g><circle cx="43.589" cy="28.699" fill="#EDE8EE" r="0.84"/></g></g><g><path d="M39.305,90.481c-0.214,0-0.413-0.139-0.479-0.354c-0.08-0.265,0.069-0.544,0.333-0.624l10.873-3.305    c0.267-0.079,0.543,0.069,0.624,0.333c0.08,0.265-0.069,0.544-0.333,0.624L39.45,90.46C39.402,90.475,39.353,90.481,39.305,90.481    z" fill="#FAFCFC"/></g><g><path d="M94.854,83.321c-0.219,0-0.42-0.145-0.481-0.366c-0.074-0.267,0.082-0.542,0.348-0.615l6.059-1.681    c0.267-0.076,0.542,0.081,0.616,0.348c0.074,0.267-0.082,0.542-0.348,0.615l-6.059,1.681    C94.943,83.315,94.898,83.321,94.854,83.321z" fill="#FAFCFC"/></g><g><path d="M103.897,72.16c-0.219,0-0.42-0.145-0.481-0.366c-0.074-0.267,0.082-0.542,0.348-0.615l1.77-0.491    c0.267-0.074,0.542,0.081,0.616,0.348c0.074,0.267-0.082,0.542-0.348,0.615l-1.77,0.491    C103.986,72.154,103.941,72.16,103.897,72.16z" fill="#FAFCFC"/></g><g><path d="M92.395,75.498c-0.219,0-0.42-0.145-0.481-0.366c-0.074-0.267,0.082-0.542,0.348-0.615l1.77-0.491    c0.267-0.074,0.542,0.081,0.616,0.348s-0.082,0.542-0.348,0.615l-1.77,0.491C92.484,75.492,92.439,75.498,92.395,75.498z" fill="#FAFCFC"/></g><g><path d="M110.865,70.734c-0.219,0-0.42-0.146-0.481-0.366c-0.074-0.267,0.083-0.542,0.349-0.615l0.885-0.245    c0.263-0.074,0.541,0.082,0.615,0.348c0.074,0.267-0.083,0.542-0.349,0.615l-0.885,0.245    C110.954,70.729,110.909,70.734,110.865,70.734z" fill="#FAFCFC"/></g><g><path d="M95.948,43.63c-0.219,0-0.42-0.145-0.481-0.366c-0.074-0.266,0.082-0.542,0.348-0.616l0.885-0.246    c0.265-0.074,0.542,0.082,0.616,0.348s-0.082,0.542-0.348,0.616l-0.885,0.246C96.037,43.624,95.992,43.63,95.948,43.63z" fill="#FAFCFC"/></g><g><path d="M84.841,58.83c-0.219,0-0.42-0.145-0.481-0.366c-0.074-0.266,0.082-0.542,0.348-0.616l0.885-0.246    c0.267-0.072,0.542,0.082,0.616,0.348c0.074,0.266-0.082,0.542-0.348,0.616l-0.885,0.246C84.93,58.824,84.885,58.83,84.841,58.83z    " fill="#FAFCFC"/></g><g><path d="M107.383,43.752c-0.219,0-0.42-0.145-0.481-0.366c-0.074-0.266,0.082-0.542,0.348-0.616l0.885-0.246    c0.266-0.072,0.542,0.082,0.616,0.348c0.074,0.266-0.082,0.542-0.348,0.616l-0.885,0.246    C107.472,43.747,107.427,43.752,107.383,43.752z" fill="#FAFCFC"/></g><g><path d="M55.854,102.312c-0.219,0-0.42-0.146-0.481-0.366c-0.074-0.267,0.083-0.542,0.349-0.615l0.885-0.245    c0.262-0.076,0.541,0.082,0.615,0.348c0.074,0.267-0.083,0.542-0.349,0.615l-0.885,0.245    C55.943,102.307,55.898,102.312,55.854,102.312z" fill="#FAFCFC"/></g><g><path d="M86.801,80.891c-0.219,0-0.42-0.145-0.481-0.366c-0.074-0.266,0.082-0.542,0.348-0.615l0.885-0.246    c0.264-0.075,0.542,0.081,0.616,0.348c0.074,0.266-0.082,0.542-0.348,0.615l-0.885,0.246    C86.891,80.885,86.845,80.891,86.801,80.891z" fill="#FAFCFC"/></g><g><path d="M39.304,88.472c-0.219,0-0.42-0.146-0.481-0.366c-0.074-0.267,0.083-0.542,0.349-0.615l0.885-0.245    c0.264-0.074,0.541,0.082,0.615,0.348c0.074,0.267-0.083,0.542-0.349,0.615l-0.885,0.245    C39.394,88.466,39.349,88.472,39.304,88.472z" fill="#FAFCFC"/></g><g><path d="M106.94,84.661c-0.219,0-0.42-0.145-0.481-0.366c-0.074-0.267,0.082-0.542,0.348-0.615l1.77-0.491    c0.266-0.075,0.542,0.081,0.616,0.348c0.074,0.267-0.082,0.542-0.348,0.615l-1.77,0.491    C107.029,84.655,106.984,84.661,106.94,84.661z" fill="#FAFCFC"/></g><g><path d="M93.279,89.817c-0.219,0-0.42-0.145-0.481-0.366c-0.074-0.267,0.082-0.542,0.348-0.615l1.77-0.491    c0.267-0.074,0.542,0.081,0.616,0.348s-0.082,0.542-0.348,0.615l-1.77,0.491C93.369,89.812,93.324,89.817,93.279,89.817z" fill="#FAFCFC"/></g><g><path d="M51.309,97.196c-0.219,0-0.42-0.146-0.481-0.366c-0.074-0.267,0.083-0.542,0.349-0.615l1.77-0.49    c0.264-0.074,0.542,0.082,0.615,0.348c0.074,0.267-0.083,0.542-0.349,0.615l-1.77,0.49C51.398,97.19,51.353,97.196,51.309,97.196z    " fill="#FAFCFC"/></g><g><path d="M71.054,72.822c-0.219,0-0.42-0.146-0.481-0.366c-0.074-0.267,0.083-0.542,0.349-0.615l1.77-0.49    c0.263-0.074,0.541,0.082,0.615,0.348c0.074,0.267-0.083,0.542-0.349,0.615l-1.77,0.49C71.144,72.816,71.099,72.822,71.054,72.822    z" fill="#FAFCFC"/></g><g><ellipse cx="42.372" cy="102.366" fill="#455E77" rx="10.169" ry="19.612"/></g><g><ellipse cx="43.268" cy="102.712" fill="#54A5C5" rx="6.568" ry="15.802"/></g><g><ellipse cx="84.511" cy="89.982" fill="#455E77" rx="8.769" ry="16.912"/></g><g><ellipse cx="85.284" cy="90.28" fill="#54A5C5" rx="5.664" ry="13.627"/></g><g><g><g><g><g><path d="M77.266,39.017c-0.315-3.176-2.536-5.79-5.504-6.686c0.008-0.113,0.034-0.22,0.034-0.334        c0-2.786-2.258-5.044-5.044-5.044c-2.786,0-5.044,2.258-5.044,5.044c0,1.321,0.519,2.514,1.351,3.413        c-0.852,1.25-1.351,2.759-1.351,4.386c0,3.677,2.548,6.752,5.973,7.575c-0.024,0.268-0.041,0.538-0.041,0.813        c0,5.075,4.114,9.189,9.189,9.189s9.189-4.114,9.189-9.189C86.017,43.257,82.136,39.247,77.266,39.017z" fill="#173842"/><g><g><g><path d="M58.92,29.092c0,0,1.356,1.956,3.696,2.091l0.945-2.091H58.92z" fill="#3578B7"/></g></g></g><g><g><g><path d="M58.92,29.092c0,0-0.354,7.581,3.089,7.95h1.553v3.28l4.455-0.543V29.092H58.92z" fill="#FFFFFF"/></g></g></g></g><g><g><g><path d="M65.361,29.092c0,0,0.011,4.683,3.206,6.463L70,28.792L65.361,29.092z" fill="#173842"/></g></g></g><g><g><g><path d="M58.92,29.092c0,0,2.043,2.654,5.148,1.945c0,0-2.261-0.751-2.16-1.945H58.92z" fill="#173842"/></g></g></g><g><g><g><path d="M61.907,29.092c0,0,1.88,1.574,4.113,1.81l-0.164-1.81H61.907z" fill="#173842"/></g></g></g></g></g></g><g><g><g><path d="M60.978,34.444l2.485,0.425C63.463,34.869,61.938,37.473,60.978,34.444z" fill="#FB571E"/></g></g></g><g><circle cx="75.216" cy="20.186" fill="#FFFFFF" r="1.052"/></g></g><g><path d="M58.92,29.092c0,0,8.988,2.091,12.177-2.831c0,0-2.77-4.05-7.412-3.343    C59.042,23.625,57.048,26.184,58.92,29.092z" fill="#B99AC8"/></g><path d="M61.28,66.008C57.205,70,46.701,80.72,48.736,83.25c2.514,3.125,9.271,10.25,9.271,10.25   s-2.254,3.991-1.506,4.62c0.748,0.63,6.123-4.995,6.123-4.995l-8.407-11.144l8.232-5.952c1.455-4.668,3.286-9.179,3.577-9.886   L61.28,66.008z" fill="#6D77AA"/><path d="M85.945,89.53L69.659,75.174c-0.032-0.029-0.072-0.038-0.107-0.062c-0.049-0.034-0.096-0.062-0.15-0.087   c-0.081-0.036-0.163-0.058-0.249-0.071c-0.035-0.006-0.066-0.027-0.102-0.029l-20.9-1.114l0.391-2.938l10.662,0.883   c0.028,0.002,0.056,0.003,0.083,0.003c0.515,0,0.952-0.396,0.996-0.917c0.045-0.551-0.364-1.034-0.914-1.08l-21.167-1.754   c-0.558-0.045-1.033,0.365-1.079,0.914c-0.045,0.551,0.364,1.034,0.914,1.08l8.509,0.705l-4.325,32.494   c-0.073,0.547,0.312,1.05,0.859,1.123c0.044,0.006,0.089,0.009,0.133,0.009c0.494,0,0.923-0.365,0.99-0.868l3.455-25.952   l14.135,21.163c0.007,0.01,0.017,0.018,0.024,0.028c0.018,0.024,0.038,0.044,0.058,0.066c0.044,0.05,0.09,0.096,0.142,0.136   c0.025,0.019,0.05,0.037,0.077,0.054c0.056,0.035,0.115,0.064,0.176,0.087c0.026,0.01,0.051,0.022,0.078,0.03   c0.09,0.026,0.182,0.043,0.277,0.043c0.051,0,0.103-0.004,0.154-0.012c0.035-0.005,0.066-0.022,0.099-0.031   c0.025-0.006,0.049-0.004,0.074-0.012l22.659-7.84c0.336-0.116,0.585-0.402,0.654-0.752C86.333,90.125,86.212,89.766,85.945,89.53z    M67.69,76.855l-5.431,18.916L48.958,75.856L67.69,76.855z M64.117,96.545l5.405-18.826l13.813,12.177L64.117,96.545z" fill="#455E77"/><path d="M66.026,66.142c-0.29,0.707-2.121,5.218-3.577,9.886c-1.517,4.866-2.621,9.891-1.123,10.916   c3.216,2.201,10.173,7.972,10.613,14.746c0.166,2.552,1.333,2.918,2.014,1.643c0.502-0.939,0.973-4.635,1.283-5.916   c0.117-0.485,0.063-0.992-0.154-1.441l-8.25-12.726l9.052-16.721l-3.06-0.194L66.026,66.142z" fill="#828AC4"/><path d="M78.961,41.326c-3.805-8.312-20.74-2.004-20.74-2.004c-0.717,0.158-1.204,0.401-1.52,0.717l-0.001-0.001   c0,0-0.008,0.008-0.01,0.01c-0.004,0.004-0.008,0.008-0.013,0.012c-0.474,0.467-15.707,15.566-16.387,26.119   c0,0-0.102,3.81,4.16,1.344c3.902-2.258,11-12.347,14.371-17.353c1.814,8.926,0.157,15.773,0.157,15.773l2.301,0.065l4.746,0.134   l6.799,0.192l3.06,0.194l1.421,0.09c3.308-0.431-1.038-10.411-1.038-10.411C81.411,48.314,78.961,41.326,78.961,41.326z" fill="#B99AC8"/><g><path d="M73.358,37.857c0,0,6.136-0.601,5.923,6.578c-0.184,6.208-6.775,20.22-21.735,24.838    c-1.431,0.442-2.97-0.424-3.264-1.893c-0.203-1.011,0.029-2.239,1.418-3.479c3.334-2.977,13.105-11.781,14.408-16.075    C71.411,43.532,70.063,38.454,73.358,37.857z" fill="#C39ED8"/></g><g><path d="M40.792,66.139c0,0-2.125,1.554-1.708,3.981c0,0,0.042,0.425,1.083,0.607c1.042,0.182,2.8,0.444,3.046,0    c0.246-0.444,0.454-4.057,0.454-4.057S43.042,64.694,40.792,66.139z" fill="#B99AC8"/></g><g><path d="M53.175,67.141c0,0-2.25,1.535-1.809,3.933c0,0,0.044,0.42,1.147,0.6c1.103,0.18,2.965,0.439,3.225,0    c0.26-0.439,0.481-4.009,0.481-4.009S55.558,65.713,53.175,67.141z" fill="#B99AC8"/></g><g><path d="M85.575,94.5c-0.219,0-0.42-0.146-0.481-0.366c-0.074-0.267,0.083-0.542,0.349-0.615l0.885-0.245    c0.264-0.075,0.542,0.082,0.615,0.348c0.074,0.267-0.083,0.542-0.349,0.615l-0.885,0.245C85.664,94.494,85.619,94.5,85.575,94.5z" fill="#FAFCFC"/></g><g><path d="M86.801,86.088c-0.219,0-0.42-0.145-0.481-0.366c-0.074-0.267,0.082-0.542,0.348-0.615l1.77-0.491    c0.268-0.076,0.542,0.081,0.616,0.348s-0.082,0.542-0.348,0.615l-1.77,0.491C86.89,86.082,86.845,86.088,86.801,86.088z" fill="#FAFCFC"/></g><g><path d="M48.951,106.288c-0.219,0-0.42-0.145-0.481-0.366c-0.074-0.267,0.082-0.542,0.348-0.615l1.77-0.491    c0.265-0.075,0.542,0.081,0.616,0.348s-0.082,0.542-0.348,0.615l-1.77,0.491C49.041,106.282,48.996,106.288,48.951,106.288z" fill="#FAFCFC"/></g><g><path d="M58.667,30.137l7.353,0.36c0,0-1.103,4.275-3.176,1.272c0,0-0.678-0.721-1.136-0.177    c-0.458,0.544-1.806,1.922-2.59,0.587C58.333,30.846,58.667,30.137,58.667,30.137z" fill="#B99AC8"/></g><g><path d="M64.833,28.375c0,0,1.5-2.104,5.333-2.114C70.167,26.261,68.375,27.958,64.833,28.375z" fill="#173842"/></g><g><path d="M61.708,28.375c0,0,3.251-3.625,7.584-3c0,0-3.667,0.875-4.917,2.333    C63.125,29.167,61.708,28.375,61.708,28.375z" fill="#173842"/></g><g><path d="M60.208,28.375c0,0,1.125-5.375,7.292-4.333C67.5,24.042,63.375,24.833,60.208,28.375z" fill="#173842"/></g><g><path d="M59.667,28.375c0,0,0.289-3.011,1.311-3.776C60.978,24.599,58.583,25.042,59.667,28.375z" fill="#173842"/></g><g><path d="M76.42,61.248c-0.219,0-0.42-0.145-0.481-0.366c-0.074-0.266,0.082-0.542,0.348-0.616l5.167-1.433    c0.267-0.074,0.542,0.082,0.616,0.348c0.074,0.266-0.082,0.542-0.348,0.616l-5.167,1.433C76.51,61.242,76.465,61.248,76.42,61.248    z" fill="#FAFCFC"/></g><g><g><ellipse cx="102.89" cy="55.181" fill="#FFFFFF" rx="1.449" ry="1.449" transform="matrix(0.6232 -0.782 0.782 0.6232 -4.3867 101.2559)"/></g><g><ellipse cx="93.814" cy="51.654" fill="#FFFFFF" rx="1.449" ry="1.449" transform="matrix(0.6232 -0.782 0.782 0.6232 -5.0485 92.8287)"/></g><g><ellipse cx="117.934" cy="40.954" fill="#FFFFFF" rx="1.449" ry="1.449" transform="matrix(0.6232 -0.782 0.782 0.6232 12.4072 107.6605)"/></g><g><ellipse cx="94.26" cy="33.008" fill="#FFFFFF" rx="1.449" ry="1.449" transform="matrix(0.6232 -0.782 0.782 0.6232 9.7012 86.1522)"/></g><g><ellipse cx="104.431" cy="44.999" fill="#FFFFFF" rx="1.449" ry="1.449" transform="matrix(0.6232 -0.782 0.782 0.6232 4.1561 98.625)"/></g><g><ellipse cx="115.069" cy="54.403" fill="#EDE8EE" rx="0.725" ry="0.725" transform="matrix(0.6232 -0.782 0.782 0.6232 0.81 110.4871)"/></g><g><ellipse cx="110.58" cy="41.347" fill="#FFFFFF" rx="0.725" ry="0.725" transform="matrix(0.6232 -0.782 0.782 0.6232 9.3292 102.0573)"/></g><g><ellipse cx="90.926" cy="43.708" fill="#EDE8EE" rx="0.725" ry="0.725" transform="matrix(0.6232 -0.782 0.782 0.6232 0.0774 87.5766)"/></g><g><ellipse cx="78.877" cy="45.578" fill="#EDE8EE" rx="0.725" ry="0.725" transform="matrix(0.6232 -0.782 0.782 0.6232 -5.925 78.8587)"/></g><g><ellipse cx="63.237" cy="43.121" fill="#EDE8EE" rx="0.725" ry="0.725" transform="matrix(0.6232 -0.782 0.782 0.6232 -9.8961 65.701)"/></g></g><g><g><ellipse cx="40.754" cy="68.096" fill="#FFFFFF" rx="1.449" ry="1.449" transform="matrix(0.8876 -0.4606 0.4606 0.8876 -26.7827 26.4212)"/></g><g><ellipse cx="33.899" cy="61.18" fill="#FFFFFF" rx="1.449" ry="1.449" transform="matrix(0.8876 -0.4606 0.4606 0.8876 -24.3674 22.4872)"/></g><g><ellipse cx="60.286" cy="61.227" fill="#FFFFFF" rx="1.449" ry="1.449" transform="matrix(0.8876 -0.4606 0.4606 0.8876 -21.4243 34.6452)"/></g><g><ellipse cx="41.898" cy="44.331" fill="#FFFFFF" rx="1.449" ry="1.449" transform="matrix(0.8876 -0.4606 0.4606 0.8876 -15.7089 24.2778)"/></g><g><ellipse cx="46.306" cy="59.425" fill="#FFFFFF" rx="1.449" ry="1.449" transform="matrix(0.8876 -0.4606 0.4606 0.8876 -22.1649 28.0042)"/></g><g><ellipse cx="52.194" cy="72.345" fill="#EDE8EE" rx="0.725" ry="0.725" transform="matrix(0.8876 -0.4606 0.4606 0.8876 -27.4537 32.1674)"/></g><g><ellipse cx="53.409" cy="58.592" fill="#FFFFFF" rx="0.725" ry="0.725" transform="matrix(0.8876 -0.4606 0.4606 0.8876 -20.9833 31.1819)"/></g><g><ellipse cx="34.497" cy="52.747" fill="#EDE8EE" rx="0.725" ry="0.725" transform="matrix(0.8876 -0.4606 0.4606 0.8876 -20.4164 21.8148)"/></g><g><ellipse cx="22.73" cy="49.549" fill="#EDE8EE" rx="0.725" ry="0.725" transform="matrix(0.8876 -0.4606 0.4606 0.8876 -20.2661 16.0364)"/></g><g><ellipse cx="9.445" cy="40.937" fill="#EDE8EE" rx="0.725" ry="0.725" transform="matrix(0.8876 -0.4606 0.4606 0.8876 -17.7923 8.9502)"/></g></g><g><polygon fill="#C39ED8" points="63.561,37.042 63.041,39.056 68.783,38.387 68.167,36.458   "/></g></g></svg>