<?xml version="1.0" ?><svg viewBox="0 0 24 24" xmlns="http://www.w3.org/2000/svg" xmlns:xlink="http://www.w3.org/1999/xlink"><defs><linearGradient gradientUnits="userSpaceOnUse" id="a" x1="2.14636" x2="20.85364" y1="5.14636" y2="23.85364"><stop offset="0" stop-color="#fff" stop-opacity="0"/><stop offset="1" stop-color="#fff" stop-opacity="0.1"/></linearGradient></defs><title/><path d="M19.5,6H1.5a.49971.49971,0,0,0-.5.5v3a.49971.49971,0,0,0,.5.5H2V21.5a.49971.49971,0,0,0,.5.5h16a.49971.49971,0,0,0,.5-.5V10h.5a.49971.49971,0,0,0,.5-.5v-3A.49971.49971,0,0,0,19.5,6Z"/><rect fill="#ef9a9a" height="11" width="15" x="3" y="10"/><rect fill="#fff" height="11" opacity="0.2" width="2" x="3" y="10"/><rect fill="#fff" height="11" opacity="0.2" width="1" x="3" y="10"/><rect height="11" opacity="0.2" width="2" x="16" y="10"/><rect height="11" opacity="0.2" width="1" x="17" y="10"/><rect fill="#ef9a9a" height="2" width="17" x="2" y="7"/><rect fill="#fff" height="2" opacity="0.2" width="2" x="2" y="7"/><rect fill="#fff" height="2" opacity="0.2" width="1" x="2" y="7"/><rect height="2" opacity="0.2" width="2" x="17" y="7"/><rect height="2" opacity="0.2" width="1" x="18" y="7"/><path d="M12,6H10.5a.49971.49971,0,0,1-.5-.5V4a2,2,0,1,1,2,2ZM11,5h1a1,1,0,1,0-1-1Z" fill="#d50000"/><path d="M10.5,6h-2A2.5,2.5,0,1,1,11,3.5v2A.49971.49971,0,0,1,10.5,6Zm-2-4a1.5,1.5,0,0,0,0,3H10V3.5A1.50164,1.50164,0,0,0,8.5,2Z" fill="#d50000"/><rect fill="#d50000" height="16.5" width="1" x="10" y="5.5"/><path d="M22.5,14h-10a.49971.49971,0,0,0-.5.5v2a.49971.49971,0,0,0,.5.5H13v5.5a.49971.49971,0,0,0,.5.5h8a.49971.49971,0,0,0,.5-.5V17h.5a.49971.49971,0,0,0,.5-.5v-2A.49971.49971,0,0,0,22.5,14Z"/><rect fill="#9575cd" height="5" width="7" x="14" y="17"/><rect fill="#fff" height="5" opacity="0.2" width="1" x="14" y="17"/><rect fill="#fff" height="5" opacity="0.2" width="0.5" x="14" y="17"/><polygon fill="#9575cd" points="22 16 21.5 16 13.5 16 13 16 13 15 22 15 22 16"/><polygon fill="#fff" opacity="0.2" points="14 16 13.944 16 13.056 16 13 16 13 15 14 15 14 16"/><polygon fill="#fff" opacity="0.2" points="13.5 16 13.472 16 13.028 16 13 16 13 15 13.5 15 13.5 16"/><rect fill="#ab47bc" height="9.25" width="1" x="17" y="13.75"/><path d="M18.5,14.01206h-1a.49971.49971,0,0,1-.5-.5v-1a1.5,1.5,0,1,1,1.5,1.5Zm-.5-1h.5a.5.5,0,1,0-.5-.5Z" fill="#ab47bc"/><path d="M17.5,14.01206H16a2,2,0,1,1,2-2v1.5A.49971.49971,0,0,1,17.5,14.01206Zm-1.5-3a1,1,0,0,0,0,2h1v-1A1.001,1.001,0,0,0,16,11.01206Z" fill="#ab47bc"/><polygon opacity="0.2" points="21 15 21.056 15 21.944 15 22 15 22 16 21 16 21 15"/><polygon opacity="0.2" points="21.5 15 21.528 15 21.972 15 22 15 22 16 21.5 16 21.5 15"/><rect height="5" opacity="0.2" width="1" x="20" y="17"/><rect height="5" opacity="0.2" width="0.5" x="20.5" y="17"/><path d="M22.5,14H19v-.08008a1.49108,1.49108,0,0,0,0-2.81579V10h.5a.49971.49971,0,0,0,.5-.5v-3a.49971.49971,0,0,0-.5-.5H12a2,2,0,0,0,0-4,1.97992,1.97992,0,0,0-1.24188.44476A2.49679,2.49679,0,1,0,8.5,6h-7a.49971.49971,0,0,0-.5.5v3a.49971.49971,0,0,0,.5.5H2V21.5a.49971.49971,0,0,0,.5.5H13v.5a.49971.49971,0,0,0,.5.5h8a.49971.49971,0,0,0,.5-.5V17h.5a.49971.49971,0,0,0,.5-.5v-2A.49971.49971,0,0,0,22.5,14ZM12,3a1,1,0,0,1,0,2H11V4A1.001,1.001,0,0,1,12,3ZM7,3.5a1.5,1.5,0,0,1,3,0V5H8.5A1.50164,1.50164,0,0,1,7,3.5Z" fill="url(#a)"/></svg>