<?xml version="1.0" ?><svg id="Слой_1" style="enable-background:new 0 0 512 512;" version="1.1" viewBox="0 0 512 512" xml:space="preserve" xmlns="http://www.w3.org/2000/svg" xmlns:xlink="http://www.w3.org/1999/xlink"><style type="text/css">
	.st0{fill:#FFD6C6;}
	.st1{fill:none;stroke:#000000;stroke-width:12;stroke-miterlimit:10;}
	.st2{fill:#FFD6C6;stroke:#000000;stroke-width:12;stroke-miterlimit:10;}
	.st3{fill:#FFF7C3;}
</style><g><path class="st0" d="M469.3,243.7c0,104-79.4,188.3-177.5,188.3s-177.5-84.3-177.5-188.3H469.3z"/><path class="st1" d="M450.1,243.7c0,108.7-80.5,196.9-179.8,196.9S90.6,352.4,90.6,243.7H450.1z"/><line class="st2" x1="144.2" x2="390.7" y1="440.6" y2="440.6"/><line class="st2" x1="102.5" x2="126.3" y1="440.6" y2="440.6"/><path class="st1" d="M95.8,290.9c0,0-38-25.8-56-5.9s-13.3,65.7,50.8,85.8c37.1,11.6,53.6,13.1,53.6,13.1"/><polyline class="st1" points="313.2,243.7 313.2,266.2 313.2,277.5  "/><line class="st1" x1="313.2" x2="313.2" y1="285.2" y2="294.7"/><rect class="st3" height="66.5" width="56.6" x="304.5" y="294.7"/><rect class="st1" height="66.5" width="56.6" x="284.9" y="297.5"/><line class="st1" x1="313.2" x2="313.2" y1="218.3" y2="175.6"/><line class="st1" x1="272.8" x2="272.8" y1="220.5" y2="103"/><line class="st1" x1="228.6" x2="228.6" y1="218.3" y2="161.7"/><line class="st1" x1="313.2" x2="313.2" y1="161.7" y2="152.9"/></g></svg>